<svg xmlns="http://www.w3.org/2000/svg" width="30" height="22" viewBox="0 0 30 22">
    <g fill="none" fill-rule="evenodd">
        <g>
            <g>
                <g stroke="#FFF" stroke-linejoin="round" stroke-width="1.538">
                    <path d="M2.692 0h24.616C28.795 0 30 1.205 30 2.692v12.44c0 1.488-1.205 2.693-2.692 2.693h-11.03 0l-3.743 3.713-3.773-3.713h-6.07C1.205 17.825 0 16.62 0 15.133V2.693C0 1.204 1.205 0 2.692 0z"/>
                </g>
                <path fill="#FFF" fill-rule="nonzero" d="M14.835 12.352c.55 0 .878-.286.983-.86.06-.27.106-.458.136-.565.03-.108.073-.215.128-.323.056-.107.14-.226.253-.355.112-.13.263-.28.45-.45.677-.606 1.147-1.037 1.409-1.294.261-.256.487-.56.677-.913.19-.352.285-.763.285-1.23 0-.596-.166-1.147-.5-1.653-.333-.507-.805-.908-1.417-1.203-.611-.294-1.316-.442-2.115-.442-.86 0-1.611.176-2.256.529-.644.353-1.135.797-1.47 1.335-.337.537-.505 1.067-.505 1.59 0 .254.106.49.318.707.212.217.473.326.781.326.524 0 .879-.311 1.066-.934.198-.595.44-1.045.727-1.35.287-.306.733-.46 1.339-.46.518 0 .94.152 1.268.455.328.303.492.675.492 1.116 0 .226-.054.435-.161.628-.108.193-.24.367-.397.524-.157.157-.412.39-.764.699-.402.352-.722.657-.959.913s-.427.553-.57.892c-.143.339-.215.74-.215 1.202 0 .37.098.648.294.835.195.187.436.281.723.281zm.09 3.223c.326 0 .612-.11.86-.33.248-.221.372-.524.372-.91 0-.347-.119-.639-.355-.876-.237-.237-.53-.355-.876-.355-.353 0-.65.118-.893.355-.242.237-.363.53-.363.876 0 .391.125.696.376.913.25.218.544.327.88.327z"/>
            </g>
        </g>
    </g>
</svg>
