<svg xmlns="http://www.w3.org/2000/svg" width="30" height="29" viewBox="0 0 30 29">
    <g fill="none" fill-rule="evenodd">
        <g fill="#FFF" fill-rule="nonzero">
            <path d="M8.562 16.103h5.861v11.286c-3.359-2.885-5.445-6.934-5.86-11.286zm-6.381 0H7.03C7.385 20.167 9.07 23.996 11.818 27c-3.325-.852-6.226-2.956-7.992-6-.885-1.533-1.433-3.198-1.645-4.897zm9.636-14.14c-3.12 3.394-4.884 7.84-4.882 12.488 0 .031.002.062.004.095H2.051c-.019-2.276.562-4.555 1.75-6.596 1.769-3.036 4.68-5.138 8.017-5.987h-.001zm2.606-.39v12.973h-5.99v-.095c-.006-4.946 2.185-9.643 5.988-12.877h.002zm.708-1.556c-.023 0-.044.002-.065.004C9.859.043 5.054 2.794 2.448 7.249c-2.614 4.475-2.614 9.992 0 14.465 2.607 4.458 7.42 7.21 12.629 7.23.018.002.035.002.054.002 4.282 0 8.355-1.857 11.135-5.075.299-.312.272-.806-.059-1.084-.33-.28-.827-.228-1.093.113-1.776 2.054-4.138 3.485-6.737 4.14 1.163-1.231 2.154-2.615 2.94-4.115.428-.876-.872-1.539-1.349-.687-1.016 1.94-2.401 3.668-4.08 5.093V16.084h1.668c.42 0 .76-.337.76-.75 0-.414-.34-.75-.76-.748h-1.668V1.578c2.074 1.757 3.693 3.976 4.726 6.475.153.394.602.586.997.427.393-.16.577-.61.407-.995-.846-2.046-2.054-3.919-3.561-5.538 4.037 1.045 7.41 3.944 8.943 7.92.132.41.585.624.99.471.409-.152.6-.61.425-1.003C26.653 3.727 21.205.017 15.131.017z"/>
            <path d="M21.807 11.07c.086.004.153.024.215.057l6.077 3.426-2.34.468c-.51.103-.765.656-.504 1.09l1.678 2.796c.078.132.04.266-.095.343l-1.117.62c-.137.074-.28.039-.358-.093l-1.679-2.79c-.259-.436-.884-.499-1.233-.124l-1.583 1.706-.044-6.775c-.002-.18.143-.407.426-.564.007-.002.008-.004.013-.008.008-.003.016-.005.023-.012.177-.101.378-.148.52-.14zm.047-1.41c-1.26 0-2.59.957-2.617 2.207l.044 6.814c.005.655.198 1.253.77 1.564.569.308 1.28.062 1.658-.339l1.15-1.236 1.16 1.915c.492.819 1.609 1.104 2.464.633l1.127-.623c.855-.47 1.154-1.538.66-2.353l-1.16-1.919 1.707-.336c.554-.11 1.13-.576 1.134-1.203.004-.625-.44-1.086-1.032-1.416l-6.154-3.449v.004c-.278-.154-.58-.262-.911-.262V9.66z"/>
        </g>
    </g>
</svg>
