<svg xmlns="http://www.w3.org/2000/svg" width="30" height="22" viewBox="0 0 30 22">
    <g fill="none" fill-rule="evenodd">
        <g fill="#FFF" fill-rule="nonzero">
            <g>
                <path d="M2.857.13C1.287.13 0 1.415 0 2.985v15.715c0 1.57 1.287 2.857 2.857 2.857h24.286c1.57 0 2.857-1.287 2.857-2.857V2.986C30 1.416 28.713.13 27.143.13H2.857zm0 1.428h24.286c.804 0 1.428.625 1.428 1.428v15.715c0 .804-.624 1.428-1.428 1.428H2.857c-.804 0-1.428-.624-1.428-1.428V2.986c0-.803.624-1.428 1.428-1.428zm1.418 2.846c-.28.03-.515.222-.601.49-.087.267-.01.56.199.749l5.647 5.346-5.625 5.033c-.217.162-.325.432-.278.699.048.266.242.483.502.56.26.077.54 0 .725-.198l5.703-5.112 2.5 2.366c1.085 1.029 2.798 1.027 3.884 0l2.511-2.377 5.714 5.122c.185.199.466.276.725.199.26-.077.454-.294.502-.56.047-.267-.06-.537-.278-.699L20.48 10.99l5.647-5.346c.287-.271.3-.724.028-1.01-.271-.287-.723-.3-1.01-.028l-9.196 8.694c-.57.539-1.34.55-1.909.011L4.855 4.605c-.153-.151-.367-.225-.58-.201z"/>
            </g>
        </g>
    </g>
</svg>
