<?xml version="1.0" encoding="UTF-8" standalone="no"?>
<svg
   height="8"
   viewBox="0 0 16 4"
   width="32"
   fill="#0072bc"
   version="1.1"
   id="svg110"
   sodipodi:docname="expand_breadcrumb.svg"
   inkscape:version="1.1 (c68e22c387, 2021-05-23)"
   xmlns:inkscape="http://www.inkscape.org/namespaces/inkscape"
   xmlns:sodipodi="http://sodipodi.sourceforge.net/DTD/sodipodi-0.dtd"
   xmlns="http://www.w3.org/2000/svg"
   xmlns:svg="http://www.w3.org/2000/svg">
  <defs
     id="defs114" />
  <sodipodi:namedview
     id="namedview112"
     pagecolor="#ffffff"
     bordercolor="#999999"
     borderopacity="1"
     inkscape:pageshadow="0"
     inkscape:pageopacity="0"
     inkscape:pagecheckerboard="0"
     showgrid="false"
     showguides="false"
     fit-margin-top="0"
     fit-margin-left="0"
     fit-margin-right="0"
     fit-margin-bottom="0"
     inkscape:zoom="16.3125"
     inkscape:cx="13.793103"
     inkscape:cy="5.2413793"
     inkscape:window-width="1920"
     inkscape:window-height="1001"
     inkscape:window-x="-9"
     inkscape:window-y="-9"
     inkscape:window-maximized="1"
     inkscape:current-layer="svg110" />
  <path
     d="M 2,0 C 0.89999997,0 0,0.89999996 0,2 0,3.1 0.89999997,4 2,4 3.1,4 4,3.1 4,2 4,0.89999996 3.1,0 2,0 Z m 12,0 c -1.1,0 -2,0.89999996 -2,2 0,1.1 0.9,2 2,2 1.1,0 2,-0.9 2,-2 C 16,0.89999996 15.1,0 14,0 Z M 8,0 C 6.9,0 6,0.89999996 6,2 6,3.1 6.9,4 8,4 9.1,4 10,3.1 10,2 10,0.89999996 9.1,0 8,0 Z"
     id="path108" />
</svg>
